<?xml version="1.0" standalone="no"?>
<!DOCTYPE svg PUBLIC "-//W3C//DTD SVG 20010904//EN"
 "http://www.w3.org/TR/2001/REC-SVG-20010904/DTD/svg10.dtd">
<svg version="1.0" xmlns="http://www.w3.org/2000/svg"
 width="762.000000pt" height="762.000000pt" viewBox="0 0 762.000000 762.000000"
 preserveAspectRatio="xMidYMid meet">
<metadata>
Created by potrace 1.11, written by Peter Selinger 2001-2013
</metadata>
<g transform="translate(0.000000,762.000000) scale(0.100000,-0.100000)"
fill="#000000" stroke="none">
<path d="M1835 6637 c-57 -22 -91 -49 -119 -93 -15 -24 -32 -44 -37 -44 -13 0
-66 -58 -87 -94 -15 -27 -17 -66 -19 -317 -2 -194 1 -297 9 -320 14 -42 74
-119 94 -119 8 0 14 -4 14 -8 0 -31 153 -37 210 -8 35 19 100 81 100 97 0 5 6
9 14 9 11 0 14 53 15 296 3 361 -2 383 -99 456 -49 36 -116 50 -172 36 -59
-14 -34 36 39 79 35 20 60 27 104 27 33 1 59 4 59 9 0 11 -91 7 -125 -6z"/>
<path d="M1975 6630 c4 -6 10 -8 15 -5 4 3 10 -1 13 -7 2 -7 8 -9 13 -5 5 4 2
12 -6 17 -20 13 -43 13 -35 0z"/>
<path d="M2071 6569 c21 -22 39 -47 39 -55 0 -8 5 -14 10 -14 7 0 7 8 -1 23
-13 26 -70 87 -80 87 -4 0 10 -18 32 -41z"/>
<path d="M2121 6483 c0 -4 4 -17 9 -28 8 -19 9 -19 9 2 1 12 -3 25 -9 28 -5 3
-10 3 -9 -2z"/>
<path d="M2132 6398 c-2 -18 1 -29 4 -25 10 10 14 57 5 57 -4 0 -8 -14 -9 -32z"/>
<path d="M2132 6304 c0 -31 2 -53 5 -50 9 8 12 95 4 101 -4 2 -8 -21 -9 -51z"/>
<path d="M2132 6184 c0 -30 3 -53 6 -50 8 9 9 96 1 101 -3 3 -6 -21 -7 -51z"/>
<path d="M2133 6020 c-1 -54 -4 -109 -8 -122 -6 -17 -4 -20 5 -12 12 12 22
221 10 229 -3 2 -7 -40 -7 -95z"/>
<path d="M2099 5833 c-13 -21 -33 -46 -44 -57 -20 -18 -20 -18 4 -4 13 7 34
33 48 56 31 52 23 56 -8 5z"/>
<path d="M290 5744 c-65 -21 -141 -76 -140 -102 1 -4 9 2 18 14 29 34 101 75
138 78 19 2 37 6 41 10 7 7 -34 7 -57 0z"/>
<path d="M385 5735 c17 -8 36 -14 43 -15 11 0 60 -27 72 -40 3 -3 23 -15 45
-27 188 -100 341 -195 372 -230 18 -20 31 -39 29 -42 -3 -3 2 -15 10 -26 20
-28 17 -9 -7 39 -11 23 -34 51 -50 61 -16 11 -29 23 -29 28 0 4 -5 7 -10 7 -6
0 -40 18 -76 40 -36 22 -68 40 -70 40 -2 0 -33 18 -69 40 -36 22 -67 40 -70
40 -3 0 -33 17 -67 38 -62 38 -120 63 -142 61 -6 0 3 -7 19 -14z"/>
<path d="M3454 5739 c-3 -5 7 -9 22 -9 15 0 24 3 20 7 -11 11 -35 12 -42 2z"/>
<path d="M3360 5710 c-30 -17 -74 -40 -97 -51 -24 -11 -43 -24 -43 -29 0 -5
31 9 70 31 38 21 74 39 80 39 5 0 10 5 10 10 0 6 9 10 20 10 11 0 20 5 20 10
0 13 3 14 -60 -20z"/>
<path d="M3560 5714 c60 -28 118 -89 127 -136 3 -16 9 -31 14 -33 9 -6 -4 44
-21 75 -27 51 -93 102 -145 113 -19 4 -9 -3 25 -19z"/>
<path d="M90 5583 c-80 -71 -108 -179 -68 -269 30 -67 69 -98 263 -205 17 -9
55 -31 85 -49 201 -120 226 -128 316 -110 56 12 137 72 149 111 4 10 10 17 15
14 9 -6 97 72 89 79 -3 3 -20 -10 -38 -29 -18 -19 -36 -35 -40 -35 -5 0 -5 17
-1 38 4 21 6 45 4 53 -21 122 -46 153 -204 241 -25 14 -117 67 -205 117 l-160
92 -78 -3 c-75 -2 -79 -3 -127 -45z"/>
<path d="M3256 5599 c-32 -16 -71 -38 -86 -49 -15 -11 -31 -20 -34 -20 -7 0
-173 -96 -208 -121 -15 -10 -34 -19 -43 -19 -14 0 -22 -6 -85 -65 -39 -37 -62
-88 -66 -149 -5 -68 38 -160 92 -196 21 -14 40 -25 43 -26 3 0 19 -4 35 -9 83
-23 111 -13 375 140 196 113 281 172 281 194 0 4 19 20 43 35 38 24 98 96 80
96 -5 0 -15 -13 -24 -28 -9 -16 -31 -39 -49 -52 l-32 -23 7 34 c18 78 1 147
-50 207 -68 81 -178 101 -279 51z"/>
<path d="M3115 5570 c-44 -27 -85 -49 -91 -50 -7 0 -14 -6 -17 -14 -3 -8 40
13 96 46 111 66 115 68 101 68 -5 0 -45 -23 -89 -50z"/>
<path d="M1751 5535 c-83 -16 -181 -48 -181 -58 0 -4 16 0 36 8 42 17 65 23
152 38 34 6 62 14 62 19 0 4 -1 7 -2 7 -2 -1 -32 -7 -67 -14z"/>
<path d="M1830 5540 c0 -5 5 -10 10 -10 6 0 10 5 10 10 0 6 -4 10 -10 10 -5 0
-10 -4 -10 -10z"/>
<path d="M1880 5542 c0 -5 7 -9 15 -9 8 0 15 4 15 9 0 4 -7 8 -15 8 -8 0 -15
-4 -15 -8z"/>
<path d="M1960 5540 c0 -5 5 -10 11 -10 5 0 7 5 4 10 -3 6 -8 10 -11 10 -2 0
-4 -4 -4 -10z"/>
<path d="M1990 5540 c0 -6 7 -10 15 -10 8 0 15 2 15 4 0 2 -7 6 -15 10 -8 3
-15 1 -15 -4z"/>
<path d="M2030 5529 c0 -5 5 -7 10 -4 6 3 10 8 10 11 0 2 -4 4 -10 4 -5 0 -10
-5 -10 -11z"/>
<path d="M2060 5530 c0 -4 12 -10 28 -13 114 -21 192 -53 322 -130 66 -39 166
-128 217 -194 14 -18 29 -33 34 -33 22 0 -144 169 -206 209 -22 14 -42 28 -45
31 -5 5 -19 13 -85 47 -48 25 -141 61 -175 67 -14 3 -40 9 -57 15 -18 5 -33 6
-33 1z"/>
<path d="M3699 5523 c0 -5 -2 -21 -4 -38 -1 -16 -6 -38 -10 -47 -4 -10 -3 -18
2 -18 5 0 10 6 11 13 1 6 4 31 8 55 3 23 3 42 0 42 -3 0 -6 -3 -7 -7z"/>
<path d="M2944 5471 c-42 -30 -82 -71 -70 -71 5 0 24 16 42 34 19 19 44 38 54
41 11 4 20 11 20 16 0 13 -3 12 -46 -20z"/>
<path d="M1470 5439 c-81 -44 -159 -99 -160 -112 0 -4 25 11 55 33 30 22 58
40 64 40 5 0 11 3 13 8 2 4 29 20 61 36 54 27 67 36 50 36 -5 0 -42 -19 -83
-41z"/>
<path d="M1610 5414 c-114 -25 -229 -73 -323 -135 -33 -22 -55 -33 -48 -25 8
9 9 16 3 16 -5 0 -17 -10 -25 -22 -8 -13 -46 -54 -82 -93 -144 -150 -240 -341
-262 -522 -9 -68 -9 -235 -1 -278 44 -230 133 -396 292 -544 22 -20 48 -44 58
-53 10 -10 21 -18 24 -18 3 0 20 -11 37 -24 81 -60 261 -129 372 -143 66 -9
238 -8 298 1 172 27 359 124 501 260 38 36 74 66 79 66 5 0 7 7 3 15 -3 8 0
14 6 12 7 -1 13 4 14 11 1 6 2 17 3 22 0 6 6 10 12 10 8 0 8 -5 -1 -15 -26
-32 2 -13 33 21 86 97 193 285 197 346 1 4 7 25 14 46 22 62 45 305 28 287 -3
-3 -7 -37 -8 -76 -1 -39 -5 -90 -9 -115 -3 -24 -6 -46 -6 -49 0 -2 -6 -23 -14
-45 -8 -22 -11 -40 -8 -40 4 0 2 -5 -5 -12 -7 -7 -12 -18 -12 -25 0 -30 -89
-193 -140 -256 -45 -56 -60 -71 -60 -60 0 14 41 87 52 91 4 2 8 11 8 21 0 9 4
21 8 27 5 5 16 29 25 54 14 39 21 66 44 155 12 47 11 283 -1 340 -55 252 -170
436 -359 578 -101 76 -227 135 -342 163 -16 4 -37 9 -45 11 -41 12 -300 9
-360 -3z"/>
<path d="M966 5283 c1 -27 -4 -63 -12 -80 -7 -18 -9 -33 -5 -33 5 0 12 10 15
23 12 39 19 137 10 137 -5 0 -8 -21 -8 -47z"/>
<path d="M1271 5299 c-31 -25 -23 -33 9 -9 14 10 23 21 20 23 -3 3 -16 -3 -29
-14z"/>
<path d="M2671 5134 c30 -37 87 -147 111 -214 11 -30 25 -84 32 -120 7 -35 15
-60 18 -55 7 14 -25 140 -57 218 -30 77 -94 187 -108 187 -5 0 -3 -7 4 -16z"/>
<path d="M2830 4702 c0 -18 4 -32 9 -32 4 0 7 12 5 26 -4 38 -14 42 -14 6z"/>
<path d="M3863 4320 c-24 -4 -46 -9 -50 -13 -6 -7 88 2 96 9 10 9 -6 10 -46 4z"/>
<path d="M3924 4319 c-5 -8 86 -3 94 5 3 4 -16 5 -42 4 -26 -2 -50 -6 -52 -9z"/>
<path d="M4030 4320 c0 -5 4 -10 9 -10 6 0 13 5 16 10 3 6 -1 10 -9 10 -9 0
-16 -4 -16 -10z"/>
<path d="M4090 4321 c0 -3 28 -8 63 -9 65 -3 115 -10 128 -18 4 -2 10 0 14 6
3 6 -4 10 -17 11 -13 0 -34 2 -48 4 -60 9 -140 12 -140 6z"/>
<path d="M3700 4290 c-47 -10 -114 -28 -150 -39 -81 -26 -280 -113 -280 -123
0 -4 42 13 93 37 113 53 224 91 341 115 48 10 91 21 94 24 8 8 -2 7 -98 -14z"/>
<path d="M4310 4301 c0 -6 8 -11 18 -12 21 -1 25 -2 152 -33 41 -11 151 -52
200 -76 70 -33 90 -41 90 -34 0 12 -204 97 -290 119 -39 11 -107 27 -129 31
-14 3 -28 7 -33 10 -4 3 -8 0 -8 -5z"/>
<path d="M625 4139 c-33 -17 -96 -53 -141 -80 -45 -27 -86 -49 -93 -49 -6 0
-11 -4 -11 -9 0 -5 -10 -13 -22 -17 -13 -4 -25 -10 -28 -13 -3 -4 -31 -20 -63
-36 -32 -17 -75 -49 -95 -71 -20 -23 -46 -52 -58 -65 -12 -13 -33 -34 -48 -46
-40 -33 -65 -101 -62 -170 6 -126 103 -218 229 -215 61 1 79 9 270 121 49 28
93 51 98 51 5 0 9 4 9 9 0 5 9 12 20 16 41 13 137 77 180 120 25 25 66 64 91
87 35 32 51 56 63 97 18 61 19 71 9 71 -5 0 -9 -14 -10 -31 -3 -44 -39 -109
-77 -141 l-32 -26 1 77 c0 69 -3 83 -30 126 -64 103 -188 139 -300 85 -27 -13
-52 -26 -55 -30 -3 -3 -59 -36 -125 -74 -66 -38 -139 -80 -163 -93 -23 -14
-42 -22 -42 -19 0 10 90 96 100 96 5 0 75 39 157 87 220 128 226 132 253 144
14 6 45 14 70 16 60 7 64 13 9 13 -29 0 -64 -11 -104 -31z"/>
<path d="M784 4161 c4 -6 15 -11 24 -11 26 -1 95 -52 117 -88 11 -17 23 -31
28 -32 19 -1 -47 78 -85 101 -50 31 -94 47 -84 30z"/>
<path d="M3948 4145 c-2 -2 -43 -6 -93 -9 -49 -4 -133 -16 -185 -27 -91 -19
-330 -94 -340 -108 -3 -3 -27 -17 -55 -29 -63 -30 -169 -93 -173 -104 -2 -4
-8 -8 -13 -8 -31 0 -236 -186 -328 -297 -45 -55 -181 -255 -181 -267 0 -5 -66
-151 -79 -176 -5 -9 -12 -30 -15 -47 -6 -24 -11 -30 -27 -26 -10 3 -19 9 -19
13 0 12 -157 114 -235 153 -62 31 -165 69 -221 82 -10 2 -37 9 -59 14 -52 13
-175 25 -245 24 -73 -2 -201 -12 -210 -18 -3 -2 -22 -7 -41 -10 -104 -18 -292
-95 -383 -157 -140 -96 -258 -209 -331 -318 -16 -25 -32 -47 -35 -50 -3 -3
-21 -35 -40 -71 -25 -49 -38 -65 -50 -61 -13 5 -13 4 0 -13 9 -11 10 -16 3
-11 -8 4 -13 2 -14 -6 0 -7 -2 -20 -4 -28 -2 -8 -6 -24 -9 -35 -2 -11 -15 -63
-29 -115 -52 -199 -49 -434 6 -615 2 -5 11 -34 20 -63 23 -75 100 -224 155
-301 70 -99 202 -229 303 -298 99 -68 317 -161 414 -177 17 -2 30 -5 30 -6 0
-12 464 -15 2530 -15 l2430 1 90 22 c50 12 98 24 107 26 44 12 206 81 250 107
27 16 53 29 58 29 4 0 10 3 12 8 2 4 23 21 48 37 103 69 248 213 315 315 16
25 33 47 36 50 3 3 29 51 57 108 54 109 137 354 128 378 -3 8 -2 13 3 10 9 -6
22 17 20 37 0 7 -5 3 -10 -8 -9 -20 -5 49 6 105 28 139 24 375 -9 530 -21 97
-24 109 -43 164 -9 28 -18 53 -18 56 -7 32 -103 223 -140 278 -19 30 -35 56
-35 59 0 2 -6 10 -12 18 -7 7 -24 28 -38 47 -36 48 -187 199 -245 244 -27 21
-52 41 -55 44 -15 15 -155 94 -232 132 -71 34 -198 80 -258 94 -14 3 -43 10
-65 15 -67 16 -213 31 -300 31 -47 1 -218 -12 -225 -17 -3 -2 -23 -6 -45 -9
-22 -4 -67 -14 -100 -22 -33 -9 -64 -17 -70 -19 -35 -8 -212 -84 -262 -112
-63 -35 -187 -115 -193 -125 -3 -4 -33 20 -66 55 -172 176 -351 296 -569 380
-90 35 -210 70 -275 81 -19 3 -46 8 -60 11 -14 3 -65 8 -115 11 -49 3 -107 6
-127 8 -21 2 -39 2 -40 1z"/>
<path d="M4780 4143 c0 -7 17 -21 38 -32 109 -56 230 -149 346 -265 56 -57 82
-77 91 -70 7 5 40 27 72 48 32 22 60 42 63 45 3 3 31 19 62 34 32 16 60 33 64
38 7 12 -104 -46 -166 -87 -25 -16 -46 -32 -48 -36 -2 -5 -10 -8 -17 -8 -8 0
-18 -8 -24 -17 -9 -16 -21 -7 -93 64 -46 45 -96 92 -113 105 -16 12 -32 25
-35 29 -3 3 -30 22 -60 42 -30 20 -59 41 -65 45 -5 4 -30 19 -55 32 -25 14
-48 30 -52 35 -5 6 -8 5 -8 -2z"/>
<path d="M3240 4109 c0 -5 5 -7 10 -4 6 3 10 8 10 11 0 2 -4 4 -10 4 -5 0 -10
-5 -10 -11z"/>
<path d="M3195 4084 l-30 -25 33 17 c17 10 32 22 32 26 0 12 -2 11 -35 -18z"/>
<path d="M6050 4080 c0 -5 5 -10 10 -10 6 0 10 5 10 10 0 6 -4 10 -10 10 -5 0
-10 -4 -10 -10z"/>
<path d="M6090 4080 c0 -5 5 -10 10 -10 6 0 10 5 10 10 0 6 -4 10 -10 10 -5 0
-10 -4 -10 -10z"/>
<path d="M6122 4085 c10 -11 48 -14 48 -4 0 5 -12 9 -27 9 -14 0 -24 -2 -21
-5z"/>
<path d="M6183 4084 c3 -3 29 -7 59 -10 77 -6 128 -13 139 -19 5 -4 9 -1 9 4
0 6 -8 11 -17 12 -10 0 -26 2 -37 4 -37 7 -158 14 -153 9z"/>
<path d="M5947 4074 c-1 -1 -20 -5 -42 -8 -70 -11 -166 -34 -173 -41 -7 -8 -3
-7 118 19 41 9 100 19 130 23 30 3 57 7 60 10 4 4 -88 1 -93 -3z"/>
<path d="M6407 4060 c4 -4 41 -15 82 -24 40 -9 89 -23 109 -31 19 -8 42 -15
51 -14 9 0 -9 9 -39 20 -68 24 -215 60 -203 49z"/>
<path d="M3075 4004 c-65 -51 -235 -209 -235 -219 0 -2 -18 -23 -40 -47 -22
-24 -40 -47 -40 -53 0 -5 19 13 42 40 74 88 201 210 281 269 42 32 77 60 77
62 0 11 -21 -2 -85 -52z"/>
<path d="M956 3995 c3 -16 11 -34 16 -40 6 -6 7 1 2 20 -3 17 -11 35 -16 40
-6 6 -7 -1 -2 -20z"/>
<path d="M5607 3986 c-42 -17 -77 -34 -77 -37 0 -4 32 6 71 23 39 16 80 31 91
33 27 6 35 14 11 12 -10 0 -53 -15 -96 -31z"/>
<path d="M6670 3983 c0 -9 120 -57 126 -50 2 2 -17 12 -43 22 -27 10 -52 22
-57 26 -12 11 -26 12 -26 2z"/>
<path d="M6810 3922 c0 -5 13 -15 28 -21 66 -27 244 -157 331 -241 63 -60 182
-208 211 -262 9 -18 23 -34 31 -37 9 -3 8 2 -4 13 -9 10 -17 21 -17 25 0 7
-42 66 -102 146 -34 44 -157 167 -207 206 -24 19 -49 40 -56 47 -8 6 -18 12
-23 12 -5 0 -15 7 -22 15 -7 9 -28 23 -46 31 -19 9 -34 20 -34 25 0 5 -6 9
-14 9 -8 0 -22 7 -30 16 -9 8 -16 12 -16 8 0 -3 -7 -1 -15 6 -8 7 -15 8 -15 2z"/>
<path d="M2724 3638 c-9 -18 -27 -46 -39 -63 -31 -41 -87 -155 -77 -155 5 0
15 17 23 37 8 20 33 66 57 101 23 36 42 67 42 70 0 3 7 14 17 24 9 10 11 18 5
18 -6 0 -19 -15 -28 -32z"/>
<path d="M1629 3516 c-2 -2 -29 -6 -59 -9 -85 -10 -280 -64 -280 -78 0 -4 23
1 50 11 90 33 223 61 298 63 6 0 12 4 12 9 0 8 -13 11 -21 4z"/>
<path d="M1660 3517 c3 -2 57 -7 120 -9 63 -3 99 -2 80 1 -40 8 -207 14 -200
8z"/>
<path d="M1900 3500 c0 -5 5 -10 11 -10 5 0 7 5 4 10 -3 6 -8 10 -11 10 -2 0
-4 -4 -4 -10z"/>
<path d="M1931 3496 c3 -3 18 -7 34 -10 33 -6 149 -39 180 -51 14 -6 17 -5 10
3 -5 6 -51 22 -102 36 -85 24 -133 32 -122 22z"/>
<path d="M2177 3429 c16 -16 93 -50 93 -41 0 4 -15 14 -32 21 -18 8 -42 18
-53 23 -15 7 -17 6 -8 -3z"/>
<path d="M1197 3390 c-43 -22 -104 -58 -137 -80 -59 -40 -174 -140 -198 -172
-7 -9 -18 -23 -25 -30 -23 -23 -127 -165 -127 -172 0 -5 -9 -21 -21 -37 -11
-16 -22 -35 -23 -42 -1 -7 -8 -23 -15 -36 -18 -33 -63 -168 -52 -156 5 6 16
34 26 64 17 53 111 241 125 251 3 3 11 12 16 21 47 85 292 319 333 319 5 0 11
3 13 8 2 4 37 25 78 46 68 35 102 56 90 56 -3 0 -40 -18 -83 -40z"/>
<path d="M2565 3345 c-14 -32 -25 -59 -25 -61 0 -1 -5 -15 -10 -29 l-10 -26
-33 23 c-17 12 -41 30 -51 40 -11 10 -26 18 -33 18 -7 0 -13 4 -13 8 0 5 -12
15 -27 22 -16 8 -40 23 -55 33 -16 10 -28 14 -28 9 0 -6 7 -13 16 -16 28 -11
180 -115 207 -141 l25 -25 6 32 c3 18 20 62 36 97 17 35 28 66 26 69 -3 2 -17
-21 -31 -53z"/>
<path d="M7437 3299 c15 -28 29 -46 31 -39 3 7 0 15 -5 19 -5 3 -16 21 -24 39
-8 17 -18 32 -22 32 -5 0 4 -23 20 -51z"/>
<path d="M7470 3232 c0 -4 4 -12 8 -17 8 -9 16 -28 42 -99 6 -16 13 -27 15
-24 5 5 -33 108 -46 124 -5 6 -6 14 -2 17 3 4 1 7 -5 7 -7 0 -12 -4 -12 -8z"/>
<path d="M7538 3063 c11 -21 37 -125 34 -135 -1 -5 3 -8 9 -8 6 0 8 7 5 17 -4
9 -14 45 -22 80 -9 34 -21 63 -26 63 -5 0 -5 -7 0 -17z"/>
<path d="M7580 2896 c0 -8 4 -17 9 -20 5 -4 7 3 4 14 -6 23 -13 26 -13 6z"/>
<path d="M7593 2826 c7 -50 19 -60 15 -12 -1 20 -6 40 -11 43 -5 3 -7 -11 -4
-31z"/>
<path d="M7605 2624 c0 -79 3 -144 7 -144 9 0 8 264 -1 278 -3 6 -6 -55 -6
-134z"/>
<path d="M7600 2454 c0 -8 5 -12 10 -9 6 4 8 11 5 16 -9 14 -15 11 -15 -7z"/>
<path d="M7581 2313 c-7 -49 -15 -99 -18 -113 -3 -14 -3 -22 1 -19 9 8 44 219
36 219 -4 0 -12 -39 -19 -87z"/>
<path d="M7550 2160 c0 -5 5 -10 10 -10 6 0 10 5 10 10 0 6 -4 10 -10 10 -5 0
-10 -4 -10 -10z"/>
<path d="M7546 2125 c-3 -8 -1 -15 4 -15 6 0 10 7 10 15 0 8 -2 15 -4 15 -2 0
-6 -7 -10 -15z"/>
</g>
</svg>
